<svg xmlns="http://www.w3.org/2000/svg" xmlns:xlink="http://www.w3.org/1999/xlink"><defs><linearGradient id="paint0_linear" x1="4.878" y1="14.514" x2="86.226" y2="13.979" gradientUnits="userSpaceOnUse"><stop stop-color="#262860"/><stop offset="1" stop-color="#3D429B"/></linearGradient><linearGradient id="paint1_linear" x1="4.876" y1="14.31" x2="86.224" y2="13.774" gradientUnits="userSpaceOnUse"><stop stop-color="#262860"/><stop offset="1" stop-color="#3D429B"/></linearGradient><linearGradient id="paint2_linear" x1="4.875" y1="14.064" x2="86.223" y2="13.529" gradientUnits="userSpaceOnUse"><stop stop-color="#262860"/><stop offset="1" stop-color="#3D429B"/></linearGradient><linearGradient id="paint3_linear" x1="4.876" y1="14.249" x2="86.224" y2="13.714" gradientUnits="userSpaceOnUse"><stop stop-color="#262860"/><stop offset="1" stop-color="#3D429B"/></linearGradient></defs><symbol id="icon-contact"><path d="M21.333 21.274v-3.117l-3.736-1.868-2.962 2.962c2.132 1.103 4.407 1.82 6.698 2.023zm-9.055-3.438l4.112-4.112a1.333 1.333 0 011.54-.25l5.333 2.667c.452.226.737.687.737 1.192v5.334c0 .736-.597 1.333-1.333 1.333C11.264 24 0 12.736 0 1.333 0 .597.597 0 1.333 0h5.334c.505 0 .966.285 1.192.737l2.667 5.333a1.333 1.333 0 01-.25 1.54l-4.112 4.112a23.937 23.937 0 006.114 6.114zM7.711 6.403L5.843 2.667H2.726c.204 2.291.92 4.566 2.023 6.698l2.962-2.962z" fill="#2B2D33"/></symbol><symbol id="icon-doc"><path d="M10 2.4H2.5v19.2h15v-12h-6.25c-.69 0-1.25-.537-1.25-1.2v-6zm6.982 4.8L12.5 2.897V7.2h4.482zM20 7.2v15.6c0 .663-.56 1.2-1.25 1.2H1.25C.56 24 0 23.463 0 22.8V1.2C0 .537.56 0 1.25 0H12.5c.332 0 .65.126.884.351l6.25 6c.234.226.366.53.366.849z" fill="#2B2D33"/></symbol><symbol id="icon-message"><path d="M19.412 2.526H2.588v15.157h3.883c.714 0 1.294.565 1.294 1.263v1.263l3.106-2.274c.224-.164.496-.252.776-.252h7.765V2.526zM5.176 20.21H1.294C.58 20.209 0 19.643 0 18.946V1.263C0 .565.58 0 1.294 0h19.412C21.42 0 22 .565 22 1.263v17.683c0 .697-.58 1.263-1.294 1.263h-8.628l-4.83 3.536c-.854.625-2.072.03-2.072-1.01v-2.526zm0-6.316v-2.526h11.647v2.526H5.176zm0-5.052V6.315h11.647v2.526H5.176z" fill="#2B2D33"/></symbol><symbol id="icon-pay"><path d="M21 8.4c0-.558-.221-1.094-.615-1.489a2.097 2.097 0 00-1.485-.616h-1.175L12.602 0H.004v2.105H11.73l3.339 4.21H8.717L6.702 8.422l5.06 4.758-.557.768C9.652 13.19 4.907 10.737 3.143 9a3.506 3.506 0 01-1.05-2.674H.004a5.666 5.666 0 001.648 4.21c1.743 1.738 6.656 4.327 8.714 5.359a1.98 1.98 0 002.519-.642l.85-1.306a2.11 2.11 0 00-.776-2.547L9.715 8.379H18.9v2.105h-5.249l.61.505c.44.434.736.992.85 1.6h3.79v5.264H5.252v-2.969l-2.1-1.2v4.21A2.1 2.1 0 005.252 20H18.9a2.105 2.105 0 002.1-2.105V8.4z" fill="#2B2D33"/></symbol><symbol id="logo-raif" viewBox="0 0 172 36"><path d="M36.182 0H0v36h36.182V0z" fill="#000"/><path d="M35.22 1.065H1.07v33.976h34.15V1.065z" fill="#FE0"/><path d="M2.89 28.118l4.496 4.474L17.77 22.047l10.812 10.758 4.496-4.474-10.705-10.65 2.034-2.024v-4.26l1.285-1.066v3.515l1.605 1.385 4.925-4.9 1.605 1.172c.964-3.408-4.496-11.29-8.992-6.923L19.59 9.799l1.07 1.278-2.676 2.556-2.462-2.556 1.392-1.172-5.781-5.538C6.851.852 2.355 6.177 2.248 11.503l1.606-1.278 4.817 5.219 1.713-1.385v-3.195l1.07.852v4.154L13.595 18 2.89 28.118zm158.004-13.313h3.533v-4.048h3.318v4.048h3.533V4.793h-3.533v3.515h-3.318V4.793h-3.533v10.012zm-21.517-7.136c.749-.533 1.82-.852 2.676-.852.429 0 1.392.106 1.392.958s-.856.852-1.178.852h-1.712v2.237h1.498c.536 0 1.499 0 1.499.852 0 .32-.214.959-1.392.959-1.284 0-2.034-.32-3.104-.959l-.963 2.343a9.449 9.449 0 004.496 1.172c4.067 0 4.603-2.343 4.603-3.089 0-1.065-.643-2.13-2.034-2.45.856-.426 1.498-1.278 1.498-2.343 0-2.343-2.462-2.876-4.067-2.876-1.392 0-3.105.426-4.175.959l.963 2.237zm-7.814-4.26c1.605 0 3.318-.64 4.067-2.344l-2.355-.852c-.321 1.172-1.284 1.278-1.712 1.278-.429 0-1.392-.106-1.713-1.278l-2.248.852c.749 1.81 2.462 2.343 3.961 2.343zm-5.46 1.384V14.91h3.426l3.532-5.538v5.538h3.533V4.793h-3.426l-3.532 5.432V4.793h-3.533zm-23.658 7.882V7.03c-1.177 0-2.462.852-2.462 2.769.107 2.024 1.285 2.876 2.462 2.876zm3.105-5.645v5.645c1.177 0 2.462-.853 2.462-2.77s-1.285-2.875-2.462-2.875zm-3.319 12.248v-4.26c-2.141 0-5.566-.852-5.566-5.22 0-4.366 3.532-5.218 5.566-5.218V.213h3.533V4.58c2.141 0 5.566.852 5.566 5.219s-3.532 5.219-5.566 5.219v4.26h-3.533zm-15.736-6.603V7.03c-1.177 0-2.462.852-2.462 2.769 0 2.024 1.178 2.876 2.462 2.876zM89.6 7.03v5.645c1.177 0 2.462-.853 2.462-2.77-.107-1.917-1.285-2.875-2.462-2.875zm-3.32 12.248v-4.26c-2.14 0-5.567-.852-5.567-5.22 0-4.366 3.426-5.218 5.567-5.218V.213h3.533V4.58c2.14 0 5.566.852 5.566 5.219s-3.532 5.219-5.566 5.219v4.26H86.28zM73.97 3.408c1.605 0 3.318-.639 3.96-2.343L75.576.213c-.321 1.172-1.284 1.278-1.713 1.278-.428 0-1.391-.106-1.712-1.278l-2.248.852c.749 1.81 2.462 2.343 4.067 2.343zm-5.567 1.385V14.91h3.425l3.533-5.538v5.538h3.533V4.793h-3.426l-3.532 5.432V4.793h-3.533zm-21.73-1.598v3.409h1.284c1.82 0 1.927-1.066 1.927-1.705 0-.745-.215-1.704-1.927-1.704h-1.285zm-3.855 11.61V0h5.995c4.068 0 5.245 2.876 5.245 4.9 0 2.023-1.177 4.899-5.138 4.899h-2.14v5.006h-3.962zm81.036-10.012V14.91h-3.532v-1.17c-.643.958-1.82 1.49-2.998 1.49-2.997 0-5.031-2.555-5.031-5.431s2.034-5.326 5.031-5.326c1.178 0 2.355.426 3.105 1.278v-.958h3.425zm-5.673 2.77c-1.499 0-2.248 1.064-2.248 2.236 0 1.278.856 2.237 2.248 2.237 1.391 0 2.248-.96 2.248-2.237 0-1.278-.857-2.237-2.248-2.237zm-52.026-2.77V14.91h-3.533v-1.17c-.642.958-1.82 1.49-2.997 1.49-2.997 0-5.031-2.555-5.031-5.431s2.034-5.326 5.03-5.326c1.178 0 2.356.426 3.105 1.278v-.958h3.426zm-5.674 2.77c-1.498 0-2.248 1.064-2.248 2.236 0 1.278.857 2.237 2.248 2.237 1.392 0 2.248-.96 2.248-2.237 0-1.278-.856-2.237-2.248-2.237zm98.699 2.662v.426h-7.493c0 1.491.749 2.237 2.248 2.237.749 0 1.284-.213 1.713-.959h3.425c-.535 2.45-2.783 3.515-5.138 3.515-3.319 0-5.781-1.917-5.781-5.326 0-3.408 2.248-5.432 5.567-5.432 3.425-.106 5.459 2.13 5.459 5.539zm-7.493-1.704h4.068c-.214-.959-1.071-1.598-2.034-1.598-.964 0-1.82.533-2.034 1.598zM47.422 32.911h.642c.642 0 1.178 0 1.606-.106.428-.107.75-.213 1.07-.426.322-.213.536-.64.643-1.172.107-.533.107-.852-.107-1.065-.214-.213-.536-.426-.857-.426-.32 0-.856-.107-1.605-.107h-.643l-.749 3.302zm8.457-11.822l-.75 3.301h-5.994l-.428 2.024h2.248c1.177 0 2.034.213 2.783.533.75.32 1.177.958 1.498 1.597.215.746.322 1.598 0 2.663-.214.959-.642 1.917-1.284 2.556-.642.746-1.392 1.278-2.248 1.598a8.83 8.83 0 01-2.998.532h-5.994l3.211-15.017h9.956v.213zm9.421 4.58l-2.677 4.793h3.212l-.535-4.793zm-4.39 7.775L59.306 36H55.13l8.992-15.018h4.282L70.866 36h-4.175l-.428-2.556h-5.352zm23.23-6.604l1.177-5.751h3.961L86.067 36h-3.961l1.392-6.071h-5.674L76.539 36h-3.96l3.211-14.911h3.854l-1.178 5.751h5.674zm16.807-5.751h4.924l-7.493 7.03L103.195 36h-5.138l-3.64-6.497L93.026 36h-3.961l3.211-14.911h3.961l-1.391 6.177h.106l5.995-6.177z" fill="#000"/></symbol><symbol id="logo-visa" viewBox="0 0 87 28"><path d="M86.681 27.55h-6.523c-.24-1.15-.496-2.27-.704-3.405-.08-.464-.24-.656-.751-.64-2.623.032-5.23.032-7.852 0-.4 0-.56.128-.671.496a129.518 129.518 0 01-1.151 3.214c-.048.144-.24.336-.368.336-2.35.016-4.717.016-7.148.016.448-1.072.864-2.079 1.28-3.102 3.038-7.26 6.076-14.503 9.13-21.763C72.578 1.135 73.57.48 75.265.48h5.724c.192.88.384 1.759.56 2.622 1.503 7.164 2.99 14.343 4.493 21.507.192.911.416 1.822.623 2.75a.777.777 0 01.016.192zm-8.538-9.625c-.688-3.326-1.375-6.62-2.063-9.914-.032 0-.064-.016-.08-.016-1.199 3.294-2.382 6.588-3.597 9.93h5.74z" fill="url(#paint0_linear)"/><path d="M58.267 0c.864.16 1.727.288 2.575.496.783.176 1.535.431 2.366.671-.416 1.951-.815 3.854-1.215 5.709-1.087-.32-2.127-.688-3.198-.928-1.471-.32-2.974-.447-4.43-.032-.591.16-1.199.48-1.662.88-.8.687-.816 1.679-.048 2.398.527.496 1.151.912 1.79 1.28 1.424.863 2.927 1.598 4.318 2.526 1.63 1.087 2.83 2.558 3.07 4.573.448 3.55-.864 6.348-3.854 8.33-1.87 1.248-3.997 1.808-6.204 2-3.086.287-6.108-.064-9.066-1.024a8.54 8.54 0 01-.576-.224c-.064-.016-.112-.064-.192-.128.416-1.95.832-3.901 1.264-5.916.495.224.975.432 1.455.64 2.302.927 4.685 1.359 7.147.895a5.2 5.2 0 001.84-.767c1.182-.784 1.294-2.271.223-3.214-.704-.608-1.551-1.056-2.367-1.551-1.263-.768-2.59-1.424-3.79-2.271-1.518-1.103-2.622-2.558-2.845-4.51-.32-2.91.767-5.276 3.006-7.115C49.824 1.12 52.127.4 54.589.112c.144-.016.272-.064.4-.096A222.92 222.92 0 0158.267 0z" fill="url(#paint1_linear)"/><path d="M32.891.495c-.367.88-.72 1.727-1.071 2.559-3.358 8.01-6.716 16.022-10.058 24.033-.16.384-.351.48-.735.48a270.013 270.013 0 00-6.364 0c-.448 0-.592-.145-.704-.56-1.79-7.004-3.63-13.992-5.404-20.995-.32-1.28-.976-2.159-2.207-2.702C4.381 2.446 2.351 1.839.272 1.343.176 1.327.096 1.295 0 1.279.016.463.016.463.784.463h11.128c1.76 0 3.023 1.024 3.358 2.767.944 4.925 1.855 9.865 2.799 14.79.048.208.08.432.144.736.095-.176.16-.288.207-.4C20.723 12.536 23.025 6.7 25.312.88c.128-.32.272-.432.624-.416 2.158.016 4.301.016 6.46.016.16 0 .303.016.495.016z" fill="url(#paint2_linear)"/><path d="M30.093 27.567c1.935-9.05 3.854-18.037 5.788-27.055h7.02a862.86 862.86 0 01-.864 4.061c-1.599 7.451-3.181 14.887-4.764 22.338-.113.512-.288.688-.832.672-1.919-.032-3.854-.016-5.772-.016h-.576z" fill="url(#paint3_linear)"/></symbol></svg>